<svg width="33" height="33" viewBox="0 0 33 33" fill="none" xmlns="http://www.w3.org/2000/svg">
<path fill-rule="evenodd" clip-rule="evenodd" d="M3.76517 3.7652C8.78518 -1.25481 16.9239 -1.25509 21.9435 3.76451C26.4681 8.28912 26.9129 15.3471 23.2804 20.3718L31.7587 28.8502C32.5619 29.6534 32.5619 30.9556 31.7587 31.7588C30.9555 32.5619 29.6534 32.5619 28.8502 31.7588L20.3718 23.2804C15.3471 26.9129 8.28908 26.4681 3.76448 21.9435C-1.2551 16.9239 -1.25479 8.78521 3.76517 3.7652ZM5.94657 5.94659C2.13142 9.7618 2.13101 15.9472 5.94588 19.7621C9.76078 23.577 15.9462 23.5766 19.7614 19.7614C23.5766 15.9462 23.577 9.76082 19.7621 5.9459C15.9472 2.13102 9.76177 2.13139 5.94657 5.94659Z" fill="#161617"/>
</svg>
